<svg xmlns="http://www.w3.org/2000/svg" width="300" height="245"><path d="M155.8.8c8.2.2 16.4.2 24.6.5l31.2 1.4c3 0 6 0 9-.5 7-1 13 1.2 18.5 5.5 7.2 5.6 13.4 12 18 20 2.2 4 4 8.5 5.4 13 3 8.4 8 15 14.8 21 4.5 3.8 9 7.8 13 12 7 7 9.5 15.4 9.3 25-.2 10-4.3 18-11 25-4.4 4.4-8.8 8.8-13 13.4-4 4.6-7 9.8-8.8 15.7-2.6 8.4-7.8 15-14 21-8.8 8.4-18.8 15-29.5 20.3-11 5.6-22.4 10.7-33.6 16.2l-27 13.5c-8.5 4.3-17.4 6.8-26.7 8.3-8.5 1.4-16.8 3.3-25.2 5-10 2.3-20 4.2-30 5.2-8.6 1-17.3 1-26 0-10.3-1.2-20-4.3-28.2-11-5-4-8.8-8.8-11.6-14.5-1-2.2-1-4.5-1-6.8-.3-9.7.7-19.2 1.8-28.7 1-8.5 2-17 2.7-25.5.7-8.5.3-17-1.6-25.3-1-4.5-3-8.6-5-12.8-2.7-5.5-5.4-11-7.8-16.6-2-4.6-2.7-9.6-2.8-14.8C1.4 79 3.7 72.6 9 67.4c3.5-3.5 7-7 10.3-10.8 5-5.7 7.4-12.6 7.3-20.2 0-2.4.8-4 2.5-5.4 9.7-8.6 21-14.2 33-18.3C72.8 9 83.7 6.7 94.8 5c12.5-2 25-3 37.7-3.6L150 1h5.8V.7zm6 9c4.6.2 8.2.3 11.8.7 10.7 1.3 20.8 4.7 30.3 10 10.3 5.6 19.8 12.6 29 20 .3 0 .4.2.6.4-.2-.2-.5-.2-.7-.3-4.6-2.7-9-5.2-13.5-8-7.2-4.6-14.3-9.3-22-13-12.6-6-26-9-40-7.8-9.3.8-18.7 2.3-28 3.3-5.7.6-11.2 1.2-16.8 1.5-7.7.4-15.3-.7-23-1.3-6-.5-12-.6-18 .5C56 19 43 27 32.2 39c-.6.5-.8 1.2-.7 2v3.4c0 5.6-1.5 10.8-5 15.2-2.5 3-5 5.6-7.7 8.3-2.7 2.7-5.2 5.6-7 9-3.4 7.2-3.3 14.7-1.8 22.3.8 4 3 7.3 5.2 10.6 2.4 3.5 4.8 7 6.3 11.3C24 129 25 136.7 25 144.7c.2 11.6-1.3 23-2.6 34.4-1 9.6-2 19.2-2 28.8 0 3 .3 6 1.6 8.6 3.2 6.6 8.5 11 15 14 9 4 18.3 5.2 28 5.6 7.5.3 15-.2 22.7-1 8-1 16-2.2 24-4.3 6.5-1.8 13-4 19.3-6.2 4.4-1.5 9-2.4 13.6-1.6 2.6.4 5 0 7.5-1l8.5-4c6-3.3 12.2-6.7 18.4-9.8 12-6 24-11.4 36-17.3 11.4-5.8 22.3-12.3 31.8-21 5-4.4 9.6-9.3 12.5-15.5 1.7-3.7 3-7.7 4.4-11.6 1.4-3.7 3-7.2 6-9.7 1.3-1 2.6-1.7 3.8-2.5 1-.6 0-1 0-1.6h-1l-3 1.8c-.5.2-1 0-1.5-.2l1-.6c7-3.5 13-8.3 17.7-14.8 5.4-7.6 7.5-16 5.2-25-3.2-12.6-11.3-20.4-23-24.6-6.2-2.2-12.6-2.3-19-1.6h-.4l.3-.3c.7-.5 1.5-1 2.4-1 2.8-.3 5.6-.2 8.4-.2l6 .2h1l-.5-.8c-.7-1-1.5-1.8-2-2.7-4.7-6-8-13-11.2-19.8-3-6.5-6.2-13-10.7-18.8-6.2-8-14-12.7-24.4-13-4 0-7.8-.2-11.6-.3-9-.2-18-.6-27-.7-6.6 0-13 0-19.7.2-6 0-12 .3-17.8.7-9.4.5-18.7 1.2-28 2.2-8.8 1-17.6 2-26.5 3.2H88c0 .2.3.3.5.3 8 1.7 16.3 1.8 24.5 1 9.8-1 19.6-2.3 29.4-3.4 6.7-.6 13.6-1 19.4-1.6zM111.6 190.3l-27.8-1.6c-9-.7-17.8-2.3-26.4-4.8-8.5-2.5-13.8-8-17-16-2.5-6.3-4-12.8-4.8-19.4-.8-6.4-1-12.7-.8-19 .3-5.7.4-11.3 2.3-16.6 1.5-4 3.4-7.8 5.4-11.5 1-2 1.7-4 1.7-6.3 0-.3 0-.7.2-1 .4-2.7 1-3 3.7-2.5 0 0 .4.4.4.6l1.4 7.2c.5 3.3.8 6.7 1.2 10 0 .4.4 1 .7 1.2C58.2 117 66 121.2 74.5 124c7.3 2.5 15 3.8 22.6 4.3 12.5 1 25 0 37-2 24-4 47.2-11.3 69.8-20.3 12-4.8 23.7-10.2 35.6-15.3.6-.2.7-.5.7-1.2 0-1.4 0-2.8.3-4.2.4-2 2.2-3.2 4.2-3l.3.7.6 4.5c.7 3.5 3 6 5.8 8l7.4 4.6c1.6 1.2 3 2.6 4.5 4 .7.4.5.8 0 1-2 1.4-4.3 1.2-6.5.8l-4.8-.8c-.6 0-1.5.2-1.8.6-1.6 2-3 4.3-3 7 0 1 .6 2 .7 3 0 .5 0 1.2-.2 1.5-6.5 6-11 13.5-15.8 20.6-4.7 7-9.7 13.7-16 19.3-7 6.4-15 11.6-23.3 16.3-9.4 5.2-19.2 9.7-29.8 12-6 1.3-12 2.2-18.2 3-11 1.3-22 1.6-33 1.6.3 0 .2.2.2.3zm34.5-9.5c3.2-.5 6.7-1 10-1.8 6.5-1.7 13-3.6 19.2-5.5.2 0 .5-.6.4-1L173 166c-.8-2-2-4-3-6.3-1-2.6-1-5.3-.7-8 0-.8 0-1-1-.7-9.4 3.7-19 7.3-29 8.8-.2 0-.5.4-.5.6v8c.2 3.6.4 7.2.4 10.7 0 .6 0 1 .6 1 2 0 4 .4 6.3.8zm29.5-29c.2 1.3 0 2.6.6 3.6 1.2 2.7 2.6 5.3 4 8 1 2 2 4 2 6.3l.7.3c1.6-.8 3.2-1.5 4.6-2.4 7.8-5 15.5-10.3 23.3-15.4v-.6c-3.7-3.8-4.8-8.4-4.3-13.6v-1c-.3 0-.7 0-1 .3-8.7 4.4-17.5 8.4-27 11-2.6.8-2.6.8-2.8 3.6zm32.6-38h-.5c-2.4.6-4.8 1-7 1.7l-28 8c-1 .3-2 .3-2.4 1-.2.4.3 1.5.5 2.3l2 10.3c.2.4 0 1 .8.7l11.8-4c5-1.3 9.7-2.6 14-5 5.7-3 8.5-8 9-14.8zm-75.3 29v2.3c0 .6 0 .8.7.8 5.5.5 11 0 16.3-1l14.5-3.4 2-.4c0-.7-.2-1.4-.4-2l-2.3-10.8c0-.5-.3-.8-1-.6l-19.4 3.7-9.2 2c-.8.2-1.2.5-1.2 1.5.2 2.6 0 5.3 0 8zm-11.5 39.8v.4c3-.2 6-.4 9-.8 1 0 2-.5 3-.7.6 0 .7-.3.6-.8-.5-2.3-1.2-4.7-1.2-7 0-3.8 0-7.6.3-11.4 0-.8-.3-1-1-.7-7.3 2.2-14.7 3.4-22.3 3-1.6 0-1.5 0-1.3 1.5l2.8 16c0 .2.4.6.7.6h9.2zM243.4 99c.3-1-.3-1-1.3-.8-.3 0-.8 0-1.2.2-4.3.7-8 2.5-11.8 4.6-4.7 2.6-9.2 5.7-14.3 7.5-.2 0-.4.4-.5.7v3.6l.2 6c0 .7-.3 1.4-.5 2 .7 0 1.4 0 2.2-.2 6-1 12-3 17.3-6.4 5.8-4.2 9.4-9.7 10-17.2zM94 145.8H98c.6 0 1 0 .8-.8l-.3-3.3c-.2-1.7-.4-3.4.6-4.8.6-1 .2-1-.5-1.2-3.6-.5-7-1-10.7-1.3-3-.3-6-.7-9-2-.2-.2-.7 0-.8.2-.5 1.2-1 2.4-1.2 3.6-.5 1.8-.8 3.7-1.4 5.5-.5 1.4-.7 1.3.8 1.8 5.6 2 11.5 2.2 17.5 2.2zm-2.4 19l-5.8 1c-.6 0-.7.3-.5.8l2 4.5c1.2 3.3 2.6 6.5 4 9.7 0 .2.3.5.6.6 4 1.3 8.2 1.5 12.4 1.3.2 0 .5-.5.4-.8-.3-2.3-.6-4.7-1.2-7-1.6-6.6-5.6-9.8-12-10zm24-19H126c.4 0 .6 0 .6-.7v-11c0-.2-.4-.6-.6-.6-1.8 0-3.6.3-5.5.6-4.4.7-8.7 1.8-13.2 1.3l-.5.3c-.4 1.6-1 3.3-1.3 5l-.8 4.5c0 .7.3.8 1 .8h10zm97-5c.3 1 1 2.8 1.4 4.6 0 .2.5.3.7.3 1.3-.6 2.6-1.2 3.7-2 3-2.3 5-5.5 6.8-8.6 2-3 3.8-6 6.5-8.6l.4-.5h-.6c-5 .5-9.7 2-13.8 5.3-2.8 2-4.8 4.8-5 9.5zm-153.7-7l1.2 7.7c0 .8.3 1.2 1.3 1 .5-.2 1-.2 1.5 0l5.2 1.6c.2.2.5.2.8.2 0-.2 0-.5-.2-.7-.7-1.6-1-3-.3-4.8.6-1 1.2-2.2 1.6-3.4.6-1.3 1-2.6 1.2-4 0-.5 0-.7-.7-1-3-.7-6-2-8.6-4.2-.2 0-.6 0-.8.2-1.7 2-2.3 4-2.3 7.6zM69 164c-.8 0-1 .4-.7 1l2 4 3 5c.6 1 .5 2.3 0 3.5-.4.8-.2 1.3.6 1.5l.3.2c2.7 1.3 5.7 1.5 8.7 2 0 0 .4-.5.3-.7l-2-5.6c-1.2-2.7-2.5-5.3-2.5-8.3l-.4-.4-5.7-1.3c-1.3-.2-2.5-.6-3.8-1zM59 171c-.2 1-.6 1.8-1.6 2.3-1.3.6-2.5 1-3.5-.4-.2 0-.3 0-.4-.2v.4c.5.7 1 1.7 1.7 2l10.8 3s.4-.2.3-.3l-1-3c-1.8-4.7-4-9.2-7.6-12.8-.6-.6-1-.5-1 .3l-.2.5c-.4 1.7.4 3.2 1 4.7l1.5 3.6zm-5.3-45l-.7-5.3c0-.2 0-.3-.2-.5 0 0-.2 0-.2.2-2.7 4-5 8.3-5.4 13.4 0 2.5 1.2 5 3.5 6 0 0 .5-.2.6-.4 1.2-4.4 2.3-8.7 2.4-13.3zm-9.2 33c.2.6.3 1.4.6 2l5 10.6v.2c.2 0 .3-.2.3-.4.7-1.8.8-3.6-.2-5.3l-4.4-7.7-.7-1.2c-.3.6-.4 1-.5 1.8zm2.3-44.6h-.2v-.4c-.2 0-.3 0-.3.2-1 1.4-1.8 2.7-2.6 4.2l.6 1.2.6-.5c.5-1.8 1-3.3 1.8-4.8zM77.6 56c10.5.4 19.5 2.6 27.4 8 1.6 1.2 3 3 4.4 4.4.2.2.7.4 1 .3l6.2-1.2h1.4c.8.4 2 .6 2.2 1 .3 1.3.2 2.8-1 3.7-1.2 1-2.7 1.6-4 2.3-1.6 1-3.3 1.7-5 2.6-.3.3-.6 1-.6 1.4v13c0 .3-.2 1-.5 1-2 1.5-3.8 3-6 4.2-2 1.3-4 2.4-5.7 4.4 0 0 0 .2-.2.3-1.5 2-1.5 2.6 0 4.8 2.2 3.8 4.7 7.4 8.4 10 1 .7 2 1.2 3 1.7 1.5.8 3 .6 4.2-.3 1-.6 1.7-1 2.6-1.8.8-.6 1.5-.7 2.4 0 1.3 1 1.5.8.7 2.3-1 1.6-1.8 3.4-3 5-2.2 2.7-5 3-8.2 1.3-3.2-2-5.7-4.8-8.3-7.5-2.5-2.6-5.2-5-7.8-7.5-.6-.5-1-.4-1.5 0-1 1-2 1.8-3 2.4-.8.4-1.5.2-1.8-.7-.5-1-1-2-1.4-3.2-.2-.6-.5-.8-1-.5l-6.3 3-6.8 3c-1 .3-2 .2-3 .2h-.5c0-.2.2-.3.3-.3 10.4-4.3 19-11.2 27.8-18 3-2.6 6.2-5 9.2-7.5.3-.2.6-.8.6-1v-9.4c0-.7-.2-1-.8-1.3-3.8-2-7.8-3-12-3.5-6.4-.8-13-1.3-19.5-2-4-.4-7.8-1.3-11.6-2.8-.7-.3-.7-.6-.5-1C61 61.2 64.8 58.3 70 57c2.8-.6 5.7-.8 7.6-1zM71 63h-1.4l.3.4c.8.4 1.8 1 2.7 1 3.6 0 7 0 10.7-.2h.3c0-.2-.2-.3-.3-.4-1-.8-2.3-1.4-3.7-1.4L71 63zM180.8 48.7c7.4.2 14.6 1.3 21.3 4.5 6.6 3 11.4 7.7 13.5 14.8.2.7 0 1-.5 1.6-3.2 2.6-7 2.5-10.6 1.7-3-.7-6-1.5-9-2-4.8-.7-9.5-.5-14 0-10.6 1.4-20.3 5-29.5 10h-1l-5.5-3.8c-2.2-1.5-4.2-3.2-5-6-.3-1.4 0-2.7 1-4 2.4-4.3 6-7.3 10.3-9.7 6-3.5 12.8-5.3 19.8-6.2 3-.5 6-.6 9.2-1zm-8.2 15.5h1.2c.6.2.7 0 .5-.6l-.8-2.7c-.4-1.8-.8-3.6-1-5.4 0-.6 0-.7-.6-.5-2.3.8-4.5 1.4-6.7 2-4.2 1.5-8.3 3-12 5.5-2.4 1.8-4 4-4 7.3 0 .6 0 1 .7 1 1.5 0 3.2.4 4.5 0 2.8-1 5.4-2.4 8-3.8 3.2-1.7 6.3-2.7 10-2.8zm28-3.4c-.5 0-1 0-1.7.2-.2 0-.5.2-.5.4 0 1.4.8 2.4 2.2 2.6 2.2.3 4.5.3 6.4 1.7 0 0 .4 0 .4-.2 0-1 0-2-.8-2.6-1.7-1.6-3.7-2-6-2.2zM244.5 78c-2.2-.5-4.4.4-6.6 2-5 4-10.8 6-17 7-4 .8-8.3 1.3-12.5 1.4-6.3.2-12.5-.5-18.2-3.4-5-2.6-8-6.5-8.3-12.4 0-.5 0-.7.6-.6 2.8.6 5 2 7.3 3.7l4.6 3.5c4.3 3.2 9.3 4 14.5 3.8 6-.4 11.2-2.8 16.3-5.6 3.5-2 7-4 11-5 11-2.2 21.3-.6 30 7.2 5.2 4.7 8 10.7 8 18 0 7.6-3.5 13.6-9 18.5-.2.2-.6 0-.7-.2-1-2.5-.6-5 .3-7.4.8-2.6 2-5 2.7-7.8C269.5 93 265 84 258 80.3c-4.2-2-8.5-2.6-13.5-2.4zM80.3 215.6c-12 0-20.6-.2-29-2.8-6.4-2-11.7-5.3-15.6-10.6-1-1.3-1.3-2.7-1.4-4.2 0-1.6-.2-3.2 0-4.8 0-.5.8-1 1.3-1.4 0 .2.3.3.3.5v8c0 .5 0 1 .4 1.2 4.8 4.7 10.7 7.3 17 9.2 7 2 14 3 21.2 3.3 9.3.6 18.7.2 28-.5 29.7-2.2 58.3-9.2 85.8-20.4 11-4.4 21.6-9.6 32.2-15 4-2 8-3.7 12.3-4.2h1c-.2 0-.4.3-.6.4-12.7 8.2-26.3 14.5-40.3 20-18 7.3-36.6 12.4-55.7 16-10 2-20.4 3.3-30.6 4.2-10 .7-19.7 1.2-26.4 1.2zM73.5 21c4.3.6 8.6 1 13 2 6.7 1.3 13.6 1.8 20.5 1.3 7.3-.6 14.6-1.3 22-2.2 9.8-1.2 19.6-3 29.7-2.8 14.8.2 29 3 42.4 9.5 7.3 3.5 13.8 8 19.5 13.6l5.6 6 .5.8c-.2 0-.4-.2-.6-.4-10-8.7-20.8-16-33-20.8-9.8-4-19.8-6-30.3-6.5-6.8-.3-13.5-.3-20.2 1-4.4.7-8.8 1.8-13.2 2.8-6.7 1.6-13.6 1.6-20.5 1.6-10.7 0-21.3-1-31.8-2.4-2.6-.3-5-.7-7.7-.8-.8 0-1.7.2-2.4.7-1.7 1-3.2 2.2-4.8 3-.6.4-1.3.5-2 .8l1.2-1.7c3-3.3 7-4.5 11.2-4.5h.8V21zM61.2 95h-4.7c-.3 0-.7-.5-.7-.7-.4-2.6-1.2-5-3.4-6.5-1.4-1-3.2-1.3-5-1.5-3.8-.3-7.5.6-11.2 1.4L28.8 89c-.7.2-.8 0-.6-.6 1.4-5 5.3-8.3 10.8-8.8 6.7-.6 13 1.2 19 4 3 1.2 5.7 3 8.2 5 .2.3.8.3 1 .2 1.7-1 3.4-2.2 5-3.3 1.7-1 3.3-.7 4.8.3.2 0 .3.5.3.8-.5 4.8-2.6 7-7.6 8-2.8.4-5.6.4-8.5.7V95zM86.7 205.5c-8 0-14.4-.3-21-1.8-4.5-1-8.8-3-12-6.4-2.2-2.2-3.4-4.8-4-7.7v-.5c0 .2 0 .2.2.3 4 6.2 10 9.5 16.8 11.7 6.4 2 13 3 19.6 3.5 8.4.8 16.8 0 25.2-.3l12.8-.5c16.3-.5 31.8-4 46.6-11 9-4.2 17.7-8.5 26.6-12.6 5.7-2.5 11.4-5 17.6-6 1-.3 2-.4 2.8-.5h.3l-.3.2c-14.7 5.4-28.3 13.4-42.6 19.7-9.2 4-18.6 7.5-28.5 9.5-7.3 1.3-14.4 1.8-21.8 1.4-5.4-.2-10.8.4-16.3.6h-9.7c-4.5.3-9.2.4-12.6.5zM163.8 104.7c0 3.2-.3 6.3-2 9.2-1 2-2.5 3.5-5 3.6-1.2 0-2.4-.5-3.7-.7l-.2-.4c-.2-1.6-.2-3 1-4.4l1.6-1.5c2.4-1.8 3-4 2.4-7-.2-.8-.6-1.2-1.4-1.4l-7.4-1c-1.5-.2-3-.6-4.5-1-1-.2-1-.7-.7-1.4.7-2.5 2.6-3.8 5-4 5-.4 9.7.8 13.8 4 1 .8 1 2 1.3 3.2l-.2 2.5zM13.2 93.7c0 3.2 1 7.3 2.4 11.3.7 1.8 2.2 2.7 3.8 3.4 2 1 4.3 1.5 6.4 2.3 1.6.7 3.2 1.4 4.8 2.3 1 .6 1.6 2.2 1 3.4h-.3c-3.5-2.7-7.8-4-12-5.6-3.2-1.2-5.4-3.3-6.4-6.8-2.3-8-2.5-15.6 1-23 3.5-7.2 9-12 16.4-15 .8-.2 1.8 0 2.6 0 4.3.8 8.5.2 12.8-.5 2.3-.4 4.7-1 7 0 1 .3 1.7.8 2.6 1.3.2 0 .2.3.4.5h-.6c-3.3-.2-6.5-.6-9.8-.5-8 0-15.4 1.8-22 6.4-6.7 4.7-10.2 11.4-10.2 20.5zM138 105.6c4.3 0 7.7.6 11 1.6.2 0 .6.3.6.5 0 2.2 0 4.4-1 6.5-.2.5-.4.7-1 .2-2.8-2.3-6-2.2-9.5-2-3 .4-6 1-9.3.3h-.4c-2-.6-2.2-1-1-2.8 1.2-2.3 3.2-3.4 5.6-3.8l5-.6zM157.3 30.3h-9.5l.7-.3c2.8-.3 5.6-1 8.4-1 5.7 0 11.6-.2 17.4.3 11 1 21.7 3.4 31.2 9.4 4.4 2.8 8 6.4 9.6 11.5 0 .2 0 .5.2.7 0-.3-.3-.5-.4-.7C211 44 205 40 198.3 37c-6.6-3-13.6-4.5-20.7-5.5-6.8-1-13.6-1.4-20.3-1.2zM109.2 36l-.7 1.8h-.6c-5.2-2-10.5-3.3-16-3.8-6.8-.6-13.5-.4-20 1.8C65 38 60 42.2 57.7 49c0 .5-.4 1-.6 1.3V49c.6-3.3 1.6-6.4 3.4-9.2 1-1.3 2.5-2.3 4-3 4.5-2.4 9.3-3.5 14.2-4.3 8.2-1.2 16.3-.7 24.4 1l5 1.5 1 1zM254.8 66c4.7 0 9.3.2 13.7 1.8 8.2 2.8 12.7 8.8 14.4 17 1 5.2.7 10.4.3 15.6v.5l-.5-.4c-.6-.5-.7-1-.6-1.8.5-5.3.5-10.6-.3-16-.4-1.7-1.7-3.5-2.7-5-3.7-5.8-9.2-9-16-9.8-4.2-.5-8.6-.6-13-1-1.4 0-2.8 0-4.2-.2h-.3c0-.2.2-.2.4-.3l5.7-.6h3zM98.2 195.3h18c3 0 5.8-.4 8.8-.5 2.7 0 5.3.2 7.8 1.2l.4.2h-.5l-25.5.5c-6 0-12.3.2-18.4-.7-1 0-1.8-.4-2.6-.6H86s0-.2.2-.2h12zM266.5 123.6l-2-.5h-.4l.5-.2c3.3-.7 6.4-1.7 9-3.7 4-2.8 6-7 7.3-11.4.6-2 .8-4.3 1.2-6.4v-.4c.2 0 .3.2.4.3 1.2 1.2.6 2.5.3 3.7l-2.3 11.4c0 .3-.2.7-.4.8l-10.2 6-3.3.8zM21 93.5l1-13.3c0-.3.2-.6.4-.8 3.4-2.7 7.4-4 11.4-5.6h.3v.4c-1 1-2 2-3 2.7-1.2.7-2.6 1.2-3.8 1.8-3 1.4-4.3 4-4.4 7.2 0 2.7 0 5.5-.2 8.2v.3l-.6 2-1-2.3c-.2-.2 0-.5 0-.7zM175 101.2h11c1 0 1.7.2 2.4.3 1 .2 1.6 1.2 1.4 2.2l-.4.2c-4-2-8.2-1.5-12.4-1.2-2.8.2-5.5.4-8.2-.3-2.6-.7-4-2.5-4-5 0-.7.5-1.6 1-2 .4-.2 1.3.2 2 .3v.3c-.3.3-.5.5-.8.6-1 .5-1 1.3-.5 2 1 2 2.6 2.2 4.3 2.5 1.3.3 2.7.3 4 .4.2 0 .2 0 .2-.2zM224 67.7l3.6-1c.2 0 .4-.4.6-.7-.2 0-.5 0-.8-.2-2-.4-4-.8-6-1.4-1-.2-1.6-1-2.4-1.5 1 0 2-.3 2.8 0 2.3.3 4.5 1 6.8 1.5 1 .2 2.3.2 3.5.2.7 0 1 0 .7.7-.8 2.2-2.5 3.3-4.7 3.7-2 .5-4 .2-5.6-1-.2 0-.3-.2-.4-.4h2zM144.8 43.7c0-1 0-2 .2-3.2 0-.2 0-.5.2-.7 1.5-2 3-4 4.6-5.8l1-1c.8-.7 2.4-.6 3.2.2l-.3.5c-3 2-5.2 4.5-6.5 7.8-.5 1.2-.4 2.7-.6 4l-.3 3.4-.2.3-.2-.3-1.2-5c0-.3 0-.3.2-.3zM106.5 53v6.6c-.3 0-.4-.3-.6-.4-1.2-1.3-1.3-3-1.2-4.5 0-1.4.3-3 .5-4.3.2-1.7 0-3.2-1.4-4.5-1.2-1.2-2-2.5-3-3.7-.5-.4-.4-.6.2-.8 2-.5 2-.6 3 1 .4 1 .8 1.8 1.4 2.4.8.8 1 1.7 1 3v5zM30.3 105.8c-5.8-.7-8.2-3-9.2-8.8 0 0 .3-.3.4-.2.4.2 1 .4 1 .7 1.5 2.7 4 4.4 6.3 6.3l1.7 1.5s0 .2.2.3c0 0-.2 0-.3.2zM219.8 70.3c1.8 0 3 1 3.8 2.3l-.2.4c-1.8 0-3.3-1-4.6-2v-.6h1z"/></svg>